<mxfile host="app.diagrams.net" agent="Mozilla/5.0 (Windows NT 10.0; Win64; x64) AppleWebKit/537.36 (KHTML, like Gecko) Chrome/109.0.0.0 Safari/537.36 Edg/109.0.1518.55" version="24.7.12">
  <diagram name="Página-1" id="zpPp2kmFdpz7n7tNUAb4">
    <mxGraphModel dx="1434" dy="764" grid="1" gridSize="10" guides="1" tooltips="1" connect="1" arrows="1" fold="1" page="1" pageScale="1" pageWidth="827" pageHeight="1169" math="0" shadow="0">
      <root>
        <mxCell id="0" />
        <mxCell id="1" parent="0" />
        <mxCell id="wMP6uO-jhpazliyeqYNV-1" value="&lt;font style=&quot;font-size: 24px;&quot;&gt;Nodo Raíz&lt;/font&gt;" style="rounded=1;whiteSpace=wrap;html=1;fillColor=#0050ef;strokeColor=#001DBC;fontColor=#ffffff;" vertex="1" parent="1">
          <mxGeometry x="290" y="420" width="191" height="70" as="geometry" />
        </mxCell>
        <mxCell id="wMP6uO-jhpazliyeqYNV-2" value="&lt;font style=&quot;font-size: 18px;&quot;&gt;Nodos Internos&amp;nbsp;&lt;/font&gt;&lt;div&gt;&lt;font size=&quot;3&quot;&gt;(Nodos de decisión)&lt;/font&gt;&lt;/div&gt;" style="rounded=0;whiteSpace=wrap;html=1;fillColor=#1ba1e2;fontColor=#ffffff;strokeColor=#006EAF;" vertex="1" parent="1">
          <mxGeometry x="130" y="555" width="160" height="60" as="geometry" />
        </mxCell>
        <mxCell id="wMP6uO-jhpazliyeqYNV-3" value="&lt;font style=&quot;font-size: 18px;&quot;&gt;Nodos Internos&amp;nbsp;&lt;/font&gt;&lt;div&gt;&lt;font size=&quot;3&quot;&gt;(Nodos de decisión)&lt;/font&gt;&lt;/div&gt;" style="rounded=0;whiteSpace=wrap;html=1;fillColor=#1ba1e2;fontColor=#ffffff;strokeColor=#006EAF;" vertex="1" parent="1">
          <mxGeometry x="481" y="555" width="160" height="60" as="geometry" />
        </mxCell>
        <mxCell id="wMP6uO-jhpazliyeqYNV-8" value="Nodos Terminales&amp;nbsp;&lt;div&gt;(Nodos hoja)&lt;/div&gt;" style="shape=delay;whiteSpace=wrap;html=1;fillColor=#cdeb8b;strokeColor=#36393d;" vertex="1" parent="1">
          <mxGeometry x="590" y="680" width="130" height="40" as="geometry" />
        </mxCell>
        <mxCell id="wMP6uO-jhpazliyeqYNV-9" value="Nodos Terminales&amp;nbsp;&lt;div&gt;(Nodos hoja)&lt;/div&gt;" style="shape=delay;whiteSpace=wrap;html=1;direction=west;fillColor=#cdeb8b;strokeColor=#36393d;" vertex="1" parent="1">
          <mxGeometry x="50" y="680" width="130" height="40" as="geometry" />
        </mxCell>
        <mxCell id="wMP6uO-jhpazliyeqYNV-10" value="Nodos Terminales&amp;nbsp;&lt;div&gt;(Nodos hoja)&lt;/div&gt;" style="shape=delay;whiteSpace=wrap;html=1;fillColor=#cdeb8b;strokeColor=#36393d;" vertex="1" parent="1">
          <mxGeometry x="250" y="680" width="130" height="40" as="geometry" />
        </mxCell>
        <mxCell id="wMP6uO-jhpazliyeqYNV-12" value="Nodos Terminales&amp;nbsp;&lt;div&gt;(Nodos hoja)&lt;/div&gt;" style="shape=delay;whiteSpace=wrap;html=1;direction=west;fillColor=#cdeb8b;strokeColor=#36393d;" vertex="1" parent="1">
          <mxGeometry x="400" y="680" width="130" height="40" as="geometry" />
        </mxCell>
        <mxCell id="wMP6uO-jhpazliyeqYNV-16" value="" style="endArrow=none;html=1;rounded=0;entryX=0.5;entryY=0;entryDx=0;entryDy=0;" edge="1" parent="1" target="wMP6uO-jhpazliyeqYNV-3">
          <mxGeometry width="50" height="50" relative="1" as="geometry">
            <mxPoint x="561" y="520" as="sourcePoint" />
            <mxPoint x="440" y="730" as="targetPoint" />
          </mxGeometry>
        </mxCell>
        <mxCell id="wMP6uO-jhpazliyeqYNV-17" value="" style="endArrow=none;html=1;rounded=0;entryX=0.431;entryY=0.017;entryDx=0;entryDy=0;entryPerimeter=0;" edge="1" parent="1" target="wMP6uO-jhpazliyeqYNV-2">
          <mxGeometry width="50" height="50" relative="1" as="geometry">
            <mxPoint x="199" y="520" as="sourcePoint" />
            <mxPoint x="571" y="565" as="targetPoint" />
          </mxGeometry>
        </mxCell>
        <mxCell id="wMP6uO-jhpazliyeqYNV-18" value="" style="endArrow=none;html=1;rounded=0;exitX=0.5;exitY=1;exitDx=0;exitDy=0;" edge="1" parent="1" source="wMP6uO-jhpazliyeqYNV-1">
          <mxGeometry width="50" height="50" relative="1" as="geometry">
            <mxPoint x="571" y="530" as="sourcePoint" />
            <mxPoint x="386" y="520" as="targetPoint" />
          </mxGeometry>
        </mxCell>
        <mxCell id="wMP6uO-jhpazliyeqYNV-19" value="" style="endArrow=none;html=1;rounded=0;" edge="1" parent="1">
          <mxGeometry width="50" height="50" relative="1" as="geometry">
            <mxPoint x="390" y="520" as="sourcePoint" />
            <mxPoint x="200" y="520" as="targetPoint" />
          </mxGeometry>
        </mxCell>
        <mxCell id="wMP6uO-jhpazliyeqYNV-20" value="" style="endArrow=none;html=1;rounded=0;" edge="1" parent="1">
          <mxGeometry width="50" height="50" relative="1" as="geometry">
            <mxPoint x="560" y="520" as="sourcePoint" />
            <mxPoint x="380" y="520" as="targetPoint" />
          </mxGeometry>
        </mxCell>
        <mxCell id="wMP6uO-jhpazliyeqYNV-21" value="" style="endArrow=none;html=1;rounded=0;entryX=0.5;entryY=1;entryDx=0;entryDy=0;" edge="1" parent="1" target="wMP6uO-jhpazliyeqYNV-2">
          <mxGeometry width="50" height="50" relative="1" as="geometry">
            <mxPoint x="210" y="640" as="sourcePoint" />
            <mxPoint x="204" y="680" as="targetPoint" />
          </mxGeometry>
        </mxCell>
        <mxCell id="wMP6uO-jhpazliyeqYNV-22" value="" style="endArrow=none;html=1;rounded=0;entryX=0.5;entryY=1;entryDx=0;entryDy=0;" edge="1" parent="1" target="wMP6uO-jhpazliyeqYNV-3">
          <mxGeometry width="50" height="50" relative="1" as="geometry">
            <mxPoint x="561" y="640" as="sourcePoint" />
            <mxPoint x="214" y="623" as="targetPoint" />
          </mxGeometry>
        </mxCell>
        <mxCell id="wMP6uO-jhpazliyeqYNV-23" value="" style="endArrow=none;html=1;rounded=0;entryX=0.5;entryY=1;entryDx=0;entryDy=0;" edge="1" parent="1" target="wMP6uO-jhpazliyeqYNV-9">
          <mxGeometry width="50" height="50" relative="1" as="geometry">
            <mxPoint x="210" y="640" as="sourcePoint" />
            <mxPoint x="440" y="730" as="targetPoint" />
            <Array as="points">
              <mxPoint x="115" y="640" />
            </Array>
          </mxGeometry>
        </mxCell>
        <mxCell id="wMP6uO-jhpazliyeqYNV-24" value="" style="endArrow=none;html=1;rounded=0;entryX=0.5;entryY=0;entryDx=0;entryDy=0;" edge="1" parent="1" target="wMP6uO-jhpazliyeqYNV-10">
          <mxGeometry width="50" height="50" relative="1" as="geometry">
            <mxPoint x="210" y="640" as="sourcePoint" />
            <mxPoint x="440" y="730" as="targetPoint" />
            <Array as="points">
              <mxPoint x="315" y="640" />
            </Array>
          </mxGeometry>
        </mxCell>
        <mxCell id="wMP6uO-jhpazliyeqYNV-25" value="" style="endArrow=none;html=1;rounded=0;entryX=0.5;entryY=1;entryDx=0;entryDy=0;" edge="1" parent="1" target="wMP6uO-jhpazliyeqYNV-12">
          <mxGeometry width="50" height="50" relative="1" as="geometry">
            <mxPoint x="560" y="640" as="sourcePoint" />
            <mxPoint x="440" y="730" as="targetPoint" />
            <Array as="points">
              <mxPoint x="465" y="640" />
            </Array>
          </mxGeometry>
        </mxCell>
        <mxCell id="wMP6uO-jhpazliyeqYNV-26" value="" style="endArrow=none;html=1;rounded=0;entryX=0.408;entryY=0.025;entryDx=0;entryDy=0;entryPerimeter=0;" edge="1" parent="1" target="wMP6uO-jhpazliyeqYNV-8">
          <mxGeometry width="50" height="50" relative="1" as="geometry">
            <mxPoint x="561" y="640" as="sourcePoint" />
            <mxPoint x="440" y="730" as="targetPoint" />
            <Array as="points">
              <mxPoint x="643" y="640" />
            </Array>
          </mxGeometry>
        </mxCell>
      </root>
    </mxGraphModel>
  </diagram>
</mxfile>
